<?xml version="1.0" standalone="no"?>
<!DOCTYPE svg PUBLIC "-//W3C//DTD SVG 20010904//EN"
 "http://www.w3.org/TR/2001/REC-SVG-20010904/DTD/svg10.dtd">
<svg version="1.0" xmlns="http://www.w3.org/2000/svg"
 width="70.000000pt" height="70.000000pt" viewBox="0 0 70.000000 70.000000"
 preserveAspectRatio="xMidYMid meet">
<metadata>
Created by potrace 1.11, written by Peter Selinger 2001-2013
</metadata>
<g transform="translate(0.000000,70.000000) scale(0.100000,-0.100000)"
fill="#000000" stroke="none">
<path d="M80 620 l-26 -25 1 -240 c1 -166 5 -247 13 -262 17 -31 52 -36 293
-35 224 0 248 4 269 42 9 17 15 274 11 468 -1 22 -9 41 -25 55 -23 21 -33 22
-268 22 l-243 1 -25 -26z m518 -14 c7 -4 11 -14 8 -21 -2 -7 -2 -16 1 -19 8
-7 6 -420 -1 -444 -4 -12 -16 -24 -27 -27 -17 -6 -203 -8 -414 -5 -84 1 -80
-12 -80 260 -1 219 1 243 16 254 21 14 475 16 497 2z"/>
<path d="M183 526 c-22 -19 -26 -30 -25 -82 0 -77 4 -93 31 -116 22 -17 56
-18 82 -2 21 13 37 69 34 122 -4 89 -64 127 -122 78z m82 -97 c0 -49 -4 -63
-20 -75 -32 -23 -50 4 -51 79 0 53 3 64 20 74 34 19 51 -7 51 -78z"/>
<path d="M431 536 c-6 -7 -56 -95 -110 -195 -89 -163 -97 -181 -77 -181 17 0
29 14 53 63 18 34 49 91 68 127 20 36 52 93 70 126 31 56 35 74 15 74 -4 0
-13 -6 -19 -14z"/>
<path d="M410 358 c-35 -57 -19 -174 27 -193 67 -29 119 44 101 144 -10 57
-32 81 -75 81 -27 0 -37 -6 -53 -32z m87 -28 c13 -26 8 -107 -8 -126 -15 -18
-33 -18 -48 0 -15 18 -16 107 -2 134 14 26 43 22 58 -8z"/>
</g>
</svg>
